# Zig-zag crown: the top is one non-planar 12-sided face and the
# sides are twisted (non-planar) quads.
o crown
v 1.000000 0.000000 0.000000
v 0.866025 0.000000 -0.500000
v 0.500000 0.000000 -0.866025
v 0.000000 0.000000 -1.000000
v -0.500000 0.000000 -0.866025
v -0.866025 0.000000 -0.500000
v -1.000000 0.000000 0.000000
v -0.866025 0.000000 0.500000
v -0.500000 0.000000 0.866025
v -0.000000 0.000000 1.000000
v 0.500000 0.000000 0.866025
v 0.866025 0.000000 0.500000
v 0.772741 1.300000 -0.207055
v 0.565685 0.700000 -0.565685
v 0.207055 1.300000 -0.772741
v -0.207055 0.700000 -0.772741
v -0.565685 1.300000 -0.565685
v -0.772741 0.700000 -0.207055
v -0.772741 1.300000 0.207055
v -0.565685 0.700000 0.565685
v -0.207055 1.300000 0.772741
v 0.207055 0.700000 0.772741
v 0.565685 1.300000 0.565685
v 0.772741 0.700000 0.207055
f 12 11 10 9 8 7 6 5 4 3 2 1
f 13 14 15 16 17 18 19 20 21 22 23 24
f 1 2 14 13
f 2 3 15 14
f 3 4 16 15
f 4 5 17 16
f 5 6 18 17
f 6 7 19 18
f 7 8 20 19
f 8 9 21 20
f 9 10 22 21
f 10 11 23 22
f 11 12 24 23
f 12 1 13 24
